<svg width="98" height="98" viewBox="0 0 98 98" fill="none" xmlns="http://www.w3.org/2000/svg">
<path d="M40.8333 69.4167H38.1111C33.6008 69.4167 29.9445 65.7609 29.9445 61.2508C29.9445 58.5076 29.9445 55.6195 29.9444 53.537C29.9444 51.2687 24.5 49 24.5 49C24.5 49 29.9444 46.7313 29.9445 44.463C29.9445 42.6133 29.9445 39.6323 29.9445 36.7499C29.9445 32.2396 33.6008 28.5833 38.1111 28.5833H40.8333" stroke="#BAD5F0" stroke-width="6.125" stroke-linecap="round" stroke-linejoin="round"/>
<path d="M57.1665 69.4167H59.8889C64.3989 69.4167 68.0555 65.7609 68.0555 61.2508C68.0555 58.5076 68.0555 55.6195 68.0555 53.537C68.0555 51.2687 73.4998 49 73.4998 49C73.4998 49 68.0555 46.7313 68.0555 44.463C68.0555 42.6133 68.0555 39.6323 68.0555 36.7499C68.0555 32.2396 64.3989 28.5833 59.8889 28.5833H57.1665" stroke="#BAD5F0" stroke-width="6.125" stroke-linecap="round" stroke-linejoin="round"/>
<path d="M85.75 14.7V83.3C85.75 84.6532 84.6532 85.75 83.3 85.75H14.7C13.3469 85.75 12.25 84.6532 12.25 83.3V14.7C12.25 13.3469 13.3469 12.25 14.7 12.25H83.3C84.6532 12.25 85.75 13.3469 85.75 14.7Z" stroke="#BAD5F0" stroke-width="6.125" stroke-linecap="round" stroke-linejoin="round"/>
</svg>
