<svg xmlns="http://www.w3.org/2000/svg" version="1.1" xmlns:xlink="http://www.w3.org/1999/xlink" width="512" height="512" x="0" y="0" viewBox="0 0 64 64" style="enable-background:new 0 0 512 512" xml:space="preserve" class=""><g><path d="M1.16 58.47a.98.98 0 0 0 .03 1.11c.19.27.5.43.82.43.07 0 .14 0 .22-.02l9.19-2.04c2.65 1.35 5.62 2.06 8.6 2.06 10.37 0 18.82-8.36 18.98-18.7 4.5 1.22 9.43.76 13.61-1.36l9.19 2.03c.07.02.14.02.22.02.32 0 .63-.16.82-.43.23-.33.24-.77.03-1.11l-3.75-5.93a19.01 19.01 0 0 0 3.9-11.54c0-10.48-8.52-19-19-19S25.2 12.35 25.04 22.68c-1.6-.44-3.28-.69-5.02-.69C9.52 22 1 30.52 1 41c0 4.17 1.38 8.24 3.91 11.54zM44 6c9.37 0 17 7.63 17 17 0 3.95-1.38 7.8-3.9 10.83-.28.33-.31.81-.08 1.17l2.85 4.5-7.2-1.59c-.23-.05-.48-.02-.69.09-3.99 2.12-8.8 2.53-13.08 1.19-.68-7.21-5.42-13.26-11.9-15.84 0-.12-.01-.24-.01-.36 0-9.37 7.63-17 17-17zM3 41c0-9.37 7.63-17 17-17s17 7.63 17 17-7.63 17-17 17c-2.78 0-5.54-.69-7.99-2a.995.995 0 0 0-.47-.12c-.07 0-.15 0-.22.02l-7.19 1.59 2.85-4.5c.23-.37.2-.84-.07-1.17-2.52-3.04-3.9-6.89-3.9-10.84z" fill="#bad5f0" opacity="1" data-original="#000000"></path><circle cx="20" cy="48.5" r="1.5" fill="#bad5f0" opacity="1" data-original="#000000"></circle><path d="M20 33c1.65 0 3 1.35 3 3s-1.35 3-3 3c-.55 0-1 .45-1 1v5h2v-4.1a5 5 0 1 0-6-4.9h2c0-1.65 1.35-3 3-3zM36 16h16v2H36zM36 22h16v2H36zM40 28h12v2H40z" fill="#bad5f0" opacity="1" data-original="#000000"></path></g></svg>