<svg xmlns="http://www.w3.org/2000/svg" version="1.1" xmlns:xlink="http://www.w3.org/1999/xlink" width="512" height="512" x="0" y="0" viewBox="0 0 64 64" style="enable-background:new 0 0 512 512" xml:space="preserve"><g><g data-name="Layer 50"><path d="M58.17 39.78a13.1 13.1 0 0 0-12-3.51L41.9 32l17.67-17.67a7 7 0 1 0-9.9-9.9L32 22.1l-4.98-4.98A13.006 13.006 0 0 0 9.79 2.13a1.005 1.005 0 0 0-.36 1.65l7.32 7.32-1.13 4.52-4.52 1.13-7.32-7.32a1.005 1.005 0 0 0-1.65.36 13.006 13.006 0 0 0 14.99 17.23L22.1 32 6.54 47.56a1.1 1.1 0 0 0-.23.37c0 .01-4.26 12.75-4.26 12.75A1 1 0 0 0 3 62a1.185 1.185 0 0 0 .32-.05s12.74-4.26 12.75-4.26a1.1 1.1 0 0 0 .37-.23L32 41.9l4.27 4.27a13.1 13.1 0 0 0 3.51 12 13 13 0 0 0 18.39-18.39zM51.08 5.85a5 5 0 1 1 7.07 7.07l-2.12 2.12-7.07-7.07zm-3.53 3.53 7.07 7.07-2.83 2.83-7.07-7.07zM18.14 25.21a1.022 1.022 0 0 0-.97-.26A11.009 11.009 0 0 1 3.56 12.04l6.52 6.53a.985.985 0 0 0 .95.26l5.65-1.42a1 1 0 0 0 .73-.73l1.42-5.65a.985.985 0 0 0-.26-.95l-6.53-6.52a11.009 11.009 0 0 1 12.91 13.61 1.022 1.022 0 0 0 .26.97l5.38 5.37-2.83 2.83-4.05-4.05a1 1 0 0 0-1.42 1.42l4.05 4.05-2.83 2.83zm25.17-11.59 1.41 1.42-32.23 32.23H9.66zM4.58 59.42l1.24-3.71a5.807 5.807 0 0 1 1.42 1.05 5.807 5.807 0 0 1 1.05 1.42zm10.15-3.38-4.52 1.5a7.879 7.879 0 0 0-3.75-3.75l1.5-4.52h3.72l-.47 2.34a1.013 1.013 0 0 0 1.18 1.18l2.34-.47zm.51-5.86-1.77.35.35-1.77 32.31-32.31 1.42 1.42zm1.49 4.16v-2.83l32.23-32.23 1.42 1.41zm40.02 2.41a11.007 11.007 0 0 1-18.41-10.63 1.015 1.015 0 0 0-.26-.97l-4.67-4.66 2.83-2.83 4.05 4.05a1.014 1.014 0 0 0 1.42 0 1.008 1.008 0 0 0 0-1.42l-4.05-4.05 2.83-2.83 4.66 4.67a1.015 1.015 0 0 0 .97.26 11.007 11.007 0 0 1 10.63 18.41z" fill="#bad5f0" opacity="1" data-original="#000000"></path><path d="M51.172 42.687a1 1 0 0 0-.966-.259l-5.577 1.494a1 1 0 0 0-.707.707l-1.494 5.577a1 1 0 0 0 .259.966l4.082 4.082a1 1 0 0 0 .966.259l5.577-1.494a1 1 0 0 0 .707-.707l1.494-5.577a1 1 0 0 0-.259-.966zm1.065 9.55-4.462 1.2-3.266-3.266 1.2-4.461 4.461-1.2 3.266 3.266z" fill="#bad5f0" opacity="1" data-original="#000000"></path></g></g></svg>