<svg width="56" height="56" viewBox="0 0 56 56" fill="none" xmlns="http://www.w3.org/2000/svg">
<path d="M52.6141 8.84856C52.3335 6.97381 51.7653 5.65163 51.0569 4.94321L51.0567 4.94297C50.348 4.23477 49.0259 3.66665 47.1512 3.38589C45.3117 3.11041 43.0946 3.13547 40.7775 3.46646C36.1053 4.13384 31.2971 6.00219 28.4907 8.80849L28.4907 8.80852L25.2356 12.0637L25.8522 12.6803M52.6141 8.84856L51.7559 8.977L52.6141 8.84846C52.6141 8.8485 52.6141 8.84853 52.6141 8.84856ZM52.6141 8.84856C52.8896 10.688 52.8646 12.9052 52.5336 15.2224C51.8661 19.8944 49.9977 24.7026 47.191 27.5091L29.099 45.6014L28.4824 46.2179L27.8659 45.6014L23.2011 40.9368L23.201 40.9367C22.747 40.4826 22.011 40.4826 21.557 40.9367L21.5569 40.9369C21.1031 41.3905 21.1029 42.1266 21.557 42.5808M21.557 42.5808L20.9537 43.1841L21.557 42.5809M21.557 42.5808L21.557 42.5809M21.557 42.5808C21.557 42.5809 21.557 42.5809 21.557 42.5809M21.557 42.5809L27.6603 48.6841L27.0438 49.3008M27.0438 49.3008L20.9404 43.1974C20.1459 42.4027 20.1459 41.1145 20.9404 40.3202C21.7349 39.5256 23.0231 39.5256 23.8176 40.3202L27.8659 44.3683L28.4824 44.9849L29.0989 44.3683L46.5745 26.8926C49.1973 24.2699 51.0174 19.67 51.6704 15.0991C51.9923 12.8464 52.0122 10.7162 51.7518 8.97762C51.4824 7.17785 50.9555 6.07489 50.4404 5.55972C49.9249 5.04456 48.8218 4.51771 47.0221 4.24819C45.2834 3.98782 43.1534 4.00784 40.9008 4.32961C36.3297 4.98255 31.7299 6.80254 29.1072 9.42504L25.8522 12.6803M27.0438 49.3008C27.8384 50.095 29.1265 50.095 29.921 49.3008L31.512 47.7098M27.0438 49.3008L27.6604 48.6842C28.1144 49.138 28.8505 49.138 29.3045 48.6842L29.9154 49.2952L29.3046 48.6841L31.5309 46.4577L32.3205 45.6681L32.8951 46.6256L37.6578 54.5633L37.6579 54.5635C37.8419 54.8703 38.1569 55.0752 38.5126 55.1194L31.512 47.7098M25.8522 12.6803L25.2356 12.0637M25.8522 12.6803L25.2356 12.0637M25.2356 12.0637L13.0289 24.2705L10.3985 26.9009L9.78199 27.5174L10.3985 28.134L15.0633 32.7988L15.6707 32.1914L15.0634 32.7988C15.5174 33.2528 15.5174 33.9888 15.0634 34.4428L15.0633 34.4429C14.6093 34.8969 13.8733 34.8969 13.4193 34.4429L12.8408 35.0213L13.4193 34.4428L7.31589 28.3395C7.09786 28.1214 6.97538 27.8257 6.97538 27.5174C6.97538 27.2091 7.09785 26.9134 7.31585 26.6954C7.31586 26.6953 7.31587 26.6953 7.31589 26.6953L9.54228 24.469L10.3319 23.6793L9.37434 23.1048L1.43637 18.342C1.43636 18.342 1.43636 18.342 1.43635 18.342C1.12938 18.1578 0.924379 17.8424 0.880638 17.4871M25.2356 12.0637L38.5132 55.1195C38.8682 55.163 39.2238 55.0404 39.4766 54.7876L47.6144 46.6498C47.8732 46.391 47.9951 46.0255 47.9436 45.6632C47.9436 45.6631 47.9435 45.663 47.9435 45.6628L46.0527 32.429L45.9911 31.9974L46.2994 31.6891L48.8355 29.1532C48.8355 29.1532 48.8355 29.1532 48.8355 29.1532C52.1321 25.8563 54.1293 20.4923 54.8351 15.5512L54.8351 15.5511C55.1909 13.062 55.2294 10.6127 54.9137 8.50416C54.603 6.43042 53.9248 4.52317 52.7006 3.29907L52.7005 3.29899C51.4768 2.07502 49.5694 1.39698 47.4956 1.08642L47.6247 0.224122L47.4956 1.08642C45.387 0.770649 42.9379 0.80914 40.4483 1.16473C35.5075 1.87055 30.1434 3.8677 26.8466 7.16438C26.8466 7.16439 26.8466 7.1644 26.8466 7.16441L24.3108 9.70037L24.0025 10.0087L23.5709 9.94701L10.3367 8.05642L10.3367 8.05642C9.97447 8.00466 9.60901 8.12648 9.3503 8.38521L9.35027 8.38524L1.21246 16.523C1.21245 16.523 1.21244 16.523 1.21243 16.523C0.959279 16.7762 0.836901 17.1319 0.880638 17.4871M0.880638 17.4871L0.0152587 17.5937L0.880638 17.4871ZM31.512 47.7098L31.3998 47.5229L32.1475 47.0742L32.764 47.6908L32.6099 47.8449M31.512 47.7098L32.6099 47.8449M32.6099 47.8449L36.9102 55.0119L32.6099 47.8449ZM38.3112 51.1328L38.8857 52.0903L39.6753 51.3007L45.2514 45.7247L45.5597 45.4164L45.498 44.9848L44.1825 35.7787L43.9359 34.0525L42.7028 35.2855L34.4966 43.4919L34.0152 43.9733L34.3655 44.557L38.3112 51.1328ZM11.4429 21.6344L12.0266 21.9846L12.508 21.5032L20.7144 13.2968L21.9474 12.0638L20.2211 11.8171L11.0149 10.502L10.5833 10.4403L10.2751 10.7486L4.69902 16.3247L3.90938 17.1143L4.86697 17.6889L11.4429 21.6344ZM6.92555 38.5114L6.92546 38.5115L2.85653 42.5804L2.85647 42.5805C2.40249 43.0346 1.66648 43.0346 1.21249 42.5805L1.21233 42.5803C0.75857 42.1267 0.75832 41.3906 1.21242 40.9364C1.21244 40.9364 1.21247 40.9363 1.21249 40.9363L5.28134 36.8676L4.66482 36.2511L5.28135 36.8676C5.73535 36.4136 6.47146 36.4136 6.92546 36.8676C7.3795 37.3217 7.37937 38.0577 6.92555 38.5114ZM13.0289 42.9712L13.0291 42.9713C13.4828 43.4249 13.483 44.161 13.0289 44.6153C13.0289 44.6153 13.0289 44.6153 13.0289 44.6154L4.89105 52.753C4.43706 53.2069 3.70096 53.2069 3.24695 52.7528L3.24679 52.7526C2.79304 52.299 2.79278 51.563 3.24687 51.1087C3.2469 51.1087 3.24693 51.1086 3.24695 51.1086L11.3848 42.9713L11.3849 42.9712C11.8389 42.5171 12.5749 42.5171 13.0289 42.9712ZM19.1323 50.7182L19.1322 50.7183L15.0633 54.7872L15.0632 54.7873C14.6093 55.2413 13.8732 55.2413 13.4193 54.7873L13.4191 54.7871C12.9653 54.3335 12.9651 53.5973 13.4193 53.1431L17.488 49.0743C17.4881 49.0743 17.4881 49.0742 17.4881 49.0742C17.9421 48.6204 18.6783 48.6205 19.1323 49.0743C19.5863 49.5286 19.586 50.2646 19.1323 50.7182ZM36.4168 14.5406C33.8566 14.5406 31.7811 16.616 31.7811 19.1762C31.7811 21.7364 33.8566 23.8119 36.4168 23.8119C38.977 23.8119 41.0525 21.7365 41.0525 19.1762C41.0525 16.616 38.977 14.5406 36.4168 14.5406ZM30.0664 19.1762C30.0664 15.669 32.9095 12.8258 36.4168 12.8258C39.9241 12.8258 42.7673 15.669 42.7673 19.1762C42.7673 22.6835 39.9241 25.5267 36.4168 25.5267C32.9096 25.5267 30.0664 22.6835 30.0664 19.1762Z" fill="#BAD5F0" stroke="#B8D4F0" stroke-width="1.74382"/>
</svg>
