<?xml version="1.0" encoding="utf-8"?>
<!-- Generator: Adobe Illustrator 22.0.1, SVG Export Plug-In . SVG Version: 6.00 Build 0)  -->
<svg version="1.1" id="Calque_1" xmlns="http://www.w3.org/2000/svg" xmlns:xlink="http://www.w3.org/1999/xlink" x="0px" y="0px"
	 viewBox="0 0 351.8 272.2" style="enable-background:new 0 0 351.8 272.2;" xml:space="preserve">
<style type="text/css">
	.st0{fill:#003056;}
	.st1{fill:#FFFFFF;}
	.st2{fill:#707072;}
	.st3{fill:#007CB3;}
	.st4{fill:#4EA8D0;}
	.st5{fill:#D7171B;}
	.st6{fill:#5B6069;}
</style>
<g>
	<rect x="5.4" y="6.7" class="st0" width="342.5" height="215.7"/>
	<g>
		<path class="st1" d="M40.4,67.5h26.3l40.6,67.6V67.5h20.3v94.1h-24.2L60.8,90.4v71.2H40.4V67.5z"/>
		<path class="st1" d="M140.9,67.5h41.5c12,0,20.7,2.3,26.3,6.8c5.6,4.6,8.4,11.7,8.4,21.4c0,7.2-1.7,13.1-5.2,17.7
			c-3.4,4.6-8.4,7.5-14.9,8.8l24.7,39.4h-23.4l-21.8-37.1h-14.8v37.1h-20.8V67.5z M177.4,84.3h-15.8v23.6h15.8
			c6.9,0,11.7-0.9,14.4-2.7c2.7-1.8,4-4.9,4-9.2c0-4.3-1.3-7.3-3.9-9.1C189.3,85.2,184.5,84.3,177.4,84.3z"/>
		<path class="st1" d="M279.6,161.6H235V67.5h41c6.4,0,11.7,0.3,15.7,1c4,0.7,7.3,1.8,9.7,3.2c3.6,2.2,6.4,5,8.3,8.5
			c1.9,3.5,2.9,7.4,2.9,11.8c0,5.2-1.2,9.7-3.6,13.4c-2.4,3.7-6.1,6.8-11.2,9.3c5.1,2,8.9,4.8,11.4,8.2c2.5,3.5,3.7,7.8,3.7,13.1
			c0,8.8-2.7,15.3-8.1,19.4C299.5,159.5,291.1,161.6,279.6,161.6z M255.8,84.3v21.9h20.6c4.7,0,8.2-0.9,10.4-2.7
			c2.2-1.8,3.3-4.6,3.3-8.3c0-3.8-1.1-6.6-3.3-8.3c-2.2-1.7-5.6-2.6-10.4-2.6H255.8z M276.8,145c4.8,0,8.3-0.9,10.4-2.7
			c2.2-1.8,3.2-4.6,3.2-8.4c0-3.8-1.1-6.7-3.3-8.4c-2.2-1.8-5.7-2.7-10.4-2.7h-21V145H276.8z"/>
	</g>
</g>
<g>
	<path class="st2" d="M327.1,248.8v-4.7h20.6v4.7h-7.5v20.5h-5.5v-20.5H327.1z M324.2,269.4h-5.5v-25.2h5.5V269.4z M293,244.2
		l7.9,21.2l8-21.2h4.6v25.2h-3.2v-21h-0.1l-7.9,21h-2.9l-7.9-21h-0.1v21h-3.2v-25.2H293z M262.2,244.2l7.9,21.2l8-21.2h4.6v25.2
		h-3.2v-21h-0.1l-7.9,21h-2.9l-7.9-21h-0.1v21h-3.2v-25.2H262.2z M230.1,251.8c0.5-1.6,1.3-3,2.3-4.2c1-1.2,2.3-2.2,3.8-2.9
		c1.5-0.7,3.3-1.1,5.3-1.1c2,0,3.8,0.4,5.3,1.1c1.5,0.7,2.8,1.7,3.8,2.9c1,1.2,1.8,2.6,2.3,4.2c0.5,1.6,0.8,3.2,0.8,5
		c0,1.7-0.3,3.4-0.8,5c-0.5,1.6-1.3,3-2.3,4.2c-1,1.2-2.3,2.2-3.8,2.9c-1.5,0.7-3.3,1.1-5.3,1.1c-2,0-3.7-0.4-5.3-1.1
		c-1.5-0.7-2.8-1.7-3.8-2.9c-1-1.2-1.8-2.6-2.3-4.2c-0.5-1.6-0.8-3.2-0.8-5C229.4,255,229.6,253.4,230.1,251.8 M233.2,260.5
		c0.3,1.2,0.8,2.3,1.6,3.3c0.7,1,1.6,1.8,2.7,2.4c1.1,0.6,2.4,0.9,3.9,0.9c1.5,0,2.8-0.3,4-0.9c1.1-0.6,2-1.4,2.7-2.4
		c0.7-1,1.2-2.1,1.6-3.3c0.3-1.2,0.5-2.5,0.5-3.8c0-1.3-0.2-2.5-0.5-3.8c-0.3-1.2-0.8-2.3-1.6-3.3c-0.7-1-1.6-1.8-2.7-2.4
		c-1.1-0.6-2.4-0.9-4-0.9c-1.5,0-2.8,0.3-3.9,0.9c-1.1,0.6-2,1.4-2.7,2.4c-0.7,1-1.2,2.1-1.6,3.3c-0.3,1.2-0.5,2.5-0.5,3.8
		C232.7,258,232.9,259.3,233.2,260.5 M220.5,247.7c-1.3-0.9-2.8-1.3-4.6-1.3c-1.5,0-2.8,0.3-3.9,0.8c-1.1,0.6-1.9,1.3-2.6,2.3
		c-0.7,1-1.2,2-1.5,3.3c-0.3,1.2-0.5,2.5-0.5,3.8c0,1.4,0.2,2.8,0.5,4.1c0.3,1.3,0.8,2.4,1.5,3.4c0.7,0.9,1.6,1.7,2.7,2.3
		c1.1,0.6,2.4,0.8,3.9,0.8c1.1,0,2.1-0.2,2.9-0.5c0.9-0.4,1.6-0.9,2.2-1.5c0.6-0.6,1.1-1.4,1.5-2.3c0.4-0.9,0.6-1.9,0.6-2.9h3.3
		c-0.3,3.2-1.4,5.6-3.3,7.4c-1.9,1.8-4.4,2.6-7.6,2.6c-2,0-3.7-0.3-5.1-1c-1.5-0.7-2.7-1.6-3.6-2.8c-1-1.2-1.7-2.6-2.2-4.2
		c-0.5-1.6-0.7-3.3-0.7-5.1c0-1.8,0.3-3.6,0.8-5.2c0.5-1.6,1.3-3,2.3-4.2c1-1.2,2.2-2.2,3.7-2.8c1.5-0.7,3.2-1,5.1-1
		c1.3,0,2.6,0.2,3.7,0.5c1.2,0.4,2.2,0.9,3.1,1.6c0.9,0.7,1.7,1.5,2.3,2.6c0.6,1,1,2.2,1.2,3.5H223
		C222.6,250,221.8,248.6,220.5,247.7 M168.1,251.8c0.5-1.6,1.3-3,2.3-4.2c1-1.2,2.3-2.2,3.8-2.9c1.5-0.7,3.3-1.1,5.3-1.1
		c2,0,3.8,0.4,5.3,1.1c1.5,0.7,2.8,1.7,3.8,2.9c1,1.2,1.8,2.6,2.3,4.2c0.5,1.6,0.8,3.2,0.8,5c0,1.7-0.3,3.4-0.8,5
		c-0.5,1.6-1.3,3-2.3,4.2c-1,1.2-2.3,2.2-3.8,2.9c-1.5,0.7-3.3,1.1-5.3,1.1c-2,0-3.8-0.4-5.3-1.1c-1.5-0.7-2.8-1.7-3.8-2.9
		c-1-1.2-1.8-2.6-2.3-4.2c-0.5-1.6-0.8-3.2-0.8-5C167.3,255,167.5,253.4,168.1,251.8 M171.1,260.5c0.3,1.2,0.8,2.3,1.6,3.3
		c0.7,1,1.6,1.8,2.7,2.4c1.1,0.6,2.4,0.9,4,0.9c1.5,0,2.8-0.3,3.9-0.9c1.1-0.6,2-1.4,2.7-2.4c0.7-1,1.2-2.1,1.5-3.3
		c0.3-1.2,0.5-2.5,0.5-3.8c0-1.3-0.2-2.5-0.5-3.8c-0.3-1.2-0.8-2.3-1.5-3.3c-0.7-1-1.6-1.8-2.7-2.4c-1.1-0.6-2.4-0.9-3.9-0.9
		c-1.5,0-2.8,0.3-4,0.9c-1.1,0.6-2,1.4-2.7,2.4c-0.7,1-1.2,2.1-1.6,3.3c-0.3,1.2-0.5,2.5-0.5,3.8C170.6,258,170.8,259.3,171.1,260.5
		 M145.8,247v-2.8h20.1v2.8h-8.4v22.4h-3.3V247H145.8z M127.1,269c-1.5,0.6-2.9,0.9-4.4,0.9c-1.9,0-3.6-0.3-5-1
		c-1.5-0.7-2.7-1.6-3.8-2.8c-1-1.2-1.8-2.5-2.4-4.1c-0.5-1.5-0.8-3.1-0.8-4.8c0-1.8,0.3-3.6,0.8-5.2c0.5-1.7,1.3-3.1,2.3-4.4
		c1-1.2,2.2-2.2,3.7-3c1.5-0.7,3.2-1.1,5.2-1.1c1.4,0,2.6,0.2,3.9,0.5c1.2,0.3,2.3,0.8,3.3,1.5c1,0.7,1.7,1.6,2.4,2.6
		c0.6,1,1.1,2.3,1.3,3.8h-3.3c-0.2-1-0.5-1.8-0.9-2.5c-0.4-0.7-1-1.3-1.7-1.7c-0.7-0.5-1.4-0.8-2.2-1c-0.8-0.2-1.7-0.3-2.7-0.3
		c-1.5,0-2.8,0.3-3.9,0.9c-1.1,0.6-2,1.4-2.7,2.4c-0.7,1-1.2,2.1-1.5,3.4c-0.3,1.3-0.5,2.6-0.5,3.9c0,1.3,0.2,2.6,0.6,3.8
		c0.4,1.2,0.9,2.3,1.7,3.2c0.7,0.9,1.6,1.7,2.7,2.2c1.1,0.6,2.3,0.8,3.7,0.8c1.3,0,2.5-0.2,3.5-0.6c1-0.4,1.9-1,2.6-1.7
		c0.7-0.7,1.2-1.6,1.6-2.6c0.4-1,0.5-2.1,0.5-3.2h-8v-2.8h11v13.3h-2.1l-0.9-3.1C129.7,267.5,128.5,268.5,127.1,269 M89.9,244.2
		l13.3,20.4h0.1v-20.4h3.2v25.2h-3.7l-13.2-20.2h-0.1v20.2h-3.2v-25.2H89.9z M80.8,269.4h-3.4v-25.2h3.4V269.4z M65.7,255.6
		c0.7-0.1,1.3-0.3,1.8-0.7c0.5-0.3,1-0.8,1.3-1.4c0.3-0.6,0.5-1.3,0.5-2.2c0-1.3-0.4-2.3-1.1-3.1c-0.7-0.8-1.8-1.2-3.4-1.2h-8.3v8.8
		h7C64.2,255.8,65,255.7,65.7,255.6 M65,244.2c2.4,0,4.3,0.6,5.6,1.8c1.4,1.2,2,2.8,2,4.8c0,1.5-0.3,2.9-1,4
		c-0.7,1.2-1.8,1.9-3.3,2.4v0.1c0.7,0.1,1.3,0.4,1.8,0.7c0.5,0.3,0.8,0.7,1.1,1.2c0.3,0.5,0.5,1,0.6,1.5c0.1,0.6,0.2,1.2,0.3,1.8
		c0,0.6,0.1,1.2,0.1,1.9c0,0.6,0.1,1.3,0.2,1.9c0.1,0.6,0.2,1.2,0.4,1.8c0.2,0.5,0.4,1,0.8,1.5h-3.7c-0.2-0.3-0.4-0.6-0.5-1.1
		c-0.1-0.4-0.1-0.9-0.2-1.5c0-0.5,0-1.1-0.1-1.8c0-0.6-0.1-1.3-0.2-1.9c-0.1-0.6-0.2-1.2-0.4-1.7c-0.1-0.5-0.4-1-0.7-1.4
		c-0.3-0.4-0.7-0.7-1.2-1c-0.5-0.3-1.1-0.4-2-0.4h-8.2v10.8h-3.3v-25.2H65z M40.8,244.2l9.8,25.2H47l-2.8-7.6H33.5l-2.8,7.6h-3.4
		l9.8-25.2H40.8z M43.1,259l-4.2-11.7h-0.1L34.6,259H43.1z M14.1,244.2c3.9,0,6.9,1,9,3c2.1,2,3.1,5,3.1,9c0,2.1-0.2,4-0.7,5.6
		c-0.5,1.6-1.2,3-2.2,4.1c-1,1.1-2.3,2-3.8,2.6c-1.5,0.6-3.3,0.9-5.4,0.9H5.4v-25.2H14.1z M14.4,266.5c0.4,0,0.8,0,1.4-0.1
		c0.6-0.1,1.2-0.2,1.8-0.4c0.6-0.2,1.3-0.5,1.9-1c0.6-0.4,1.2-1,1.7-1.7c0.5-0.7,0.9-1.6,1.2-2.7c0.3-1.1,0.5-2.4,0.5-4
		c0-1.5-0.1-2.9-0.4-4c-0.3-1.2-0.8-2.2-1.4-3c-0.7-0.8-1.5-1.5-2.6-1.9c-1.1-0.4-2.4-0.6-3.9-0.6H8.8v19.5H14.4z"/>
</g>
<g>
	<rect x="5.2" y="228.4" class="st3" width="85.8" height="8.1"/>
	<rect x="90.8" y="228.4" class="st4" width="85.8" height="8.1"/>
	<rect x="176.5" y="228.4" class="st5" width="85.8" height="8.1"/>
	<rect x="262.4" y="228.4" class="st6" width="85.8" height="8.1"/>
</g>
</svg>
