<svg width="56" height="56" viewBox="0 0 56 56" fill="none" xmlns="http://www.w3.org/2000/svg">
<path d="M14 7H7V14" stroke="#B8D4F0" stroke-width="3.5" stroke-linecap="round" stroke-linejoin="round"/>
<path d="M42 7H49V14" stroke="#B8D4F0" stroke-width="3.5" stroke-linecap="round" stroke-linejoin="round"/>
<path d="M14 49H7V42" stroke="#B8D4F0" stroke-width="3.5" stroke-linecap="round" stroke-linejoin="round"/>
<path d="M16.3335 42V39.6667C16.3335 33.2234 21.5568 28 28.0002 28C34.4434 28 39.6668 33.2234 39.6668 39.6667V42" stroke="#B8D4F0" stroke-width="3.5" stroke-linecap="round" stroke-linejoin="round"/>
<path d="M28 28C31.8661 28 35 24.8661 35 21C35 17.134 31.8661 14 28 14C24.1339 14 21 17.134 21 21C21 24.8661 24.1339 28 28 28Z" stroke="#B8D4F0" stroke-width="3.5" stroke-linecap="round" stroke-linejoin="round"/>
<path d="M42 49H49V42" stroke="#B8D4F0" stroke-width="3.5" stroke-linecap="round" stroke-linejoin="round"/>
</svg>
