<svg width="105" height="105" viewBox="0 0 105 105" fill="none" xmlns="http://www.w3.org/2000/svg">
<path d="M5 20.4737V51.4211C5 51.4211 5 66.8947 43.1111 66.8947C81.2222 66.8947 81.2222 51.4211 81.2222 51.4211V20.4737" stroke="#BAD5F0" stroke-width="8.17" stroke-linecap="round" stroke-linejoin="round"/>
<path d="M43.1111 5C81.2222 5 81.2222 20.4737 81.2222 20.4737C81.2222 20.4737 81.2222 35.9474 43.1111 35.9474C5 35.9474 5 20.4737 5 20.4737C5 20.4737 5 5 43.1111 5Z" stroke="#BAD5F0" stroke-width="8.17" stroke-linecap="round" stroke-linejoin="round"/>
<path d="M43.1111 97.8421C5 97.8421 5 82.3684 5 82.3684V51.4211" stroke="#BAD5F0" stroke-width="8.17" stroke-linecap="round" stroke-linejoin="round"/>
<path d="M86.6667 97.8421C92.6807 97.8421 97.5556 93.2237 97.5556 87.5263C97.5556 81.8289 92.6807 77.2105 86.6667 77.2105C84.6833 77.2105 82.824 77.7129 81.2223 78.5908C77.9676 80.3744 75.7778 83.7079 75.7778 87.5263C75.7778 91.3447 77.9676 94.6782 81.2223 96.4618C82.824 97.3397 84.6833 97.8421 86.6667 97.8421Z" stroke="#BAD5F0" stroke-width="8.17" stroke-linecap="round" stroke-linejoin="round"/>
<path d="M86.6668 103C95.6877 103 103 96.0724 103 87.5263C103 78.9802 95.6877 72.0526 86.6668 72.0526C77.6459 72.0526 70.3335 78.9802 70.3335 87.5263C70.3335 96.0724 77.6459 103 86.6668 103Z" stroke="#BAD5F0" stroke-width="4" stroke-linecap="round" stroke-linejoin="round" stroke-dasharray="0.71 4.71"/>
</svg>
