<svg width="56" height="56" viewBox="0 0 56 56" fill="none" xmlns="http://www.w3.org/2000/svg">
<g clip-path="url(#clip0_137_1380)">
<path d="M34.4331 43.8866H53.34M43.8865 53.34V34.4332" stroke="#B8D4F0" stroke-width="4.56" stroke-miterlimit="10" stroke-linecap="round"/>
<path d="M16.7869 2.92175H7.9637C6.62653 2.92175 5.34412 3.45294 4.39859 4.39847C3.45307 5.344 2.92188 6.6264 2.92188 7.96358V16.7868C2.92188 18.1239 3.45307 19.4064 4.39859 20.3519C5.34412 21.2974 6.62653 21.8286 7.9637 21.8286H16.7869C18.1241 21.8286 19.4065 21.2974 20.352 20.3519C21.2975 19.4064 21.8287 18.1239 21.8287 16.7868V7.96358C21.8287 6.6264 21.2975 5.344 20.352 4.39847C19.4065 3.45294 18.1241 2.92175 16.7869 2.92175ZM16.7869 34.4332H7.9637C6.62653 34.4332 5.34412 34.9644 4.39859 35.9099C3.45307 36.8554 2.92188 38.1378 2.92188 39.475V48.2982C2.92188 49.6354 3.45307 50.9178 4.39859 51.8633C5.34412 52.8088 6.62653 53.34 7.9637 53.34H16.7869C18.1241 53.34 19.4065 52.8088 20.352 51.8633C21.2975 50.9178 21.8287 49.6354 21.8287 48.2982V39.475C21.8287 38.1378 21.2975 36.8554 20.352 35.9099C19.4065 34.9644 18.1241 34.4332 16.7869 34.4332ZM48.2983 2.92175H39.4751C38.1379 2.92175 36.8555 3.45294 35.91 4.39847C34.9645 5.344 34.4333 6.6264 34.4333 7.96358V16.7868C34.4333 18.1239 34.9645 19.4064 35.91 20.3519C36.8555 21.2974 38.1379 21.8286 39.4751 21.8286H48.2983C49.6355 21.8286 50.9179 21.2974 51.8634 20.3519C52.8089 19.4064 53.3401 18.1239 53.3401 16.7868V7.96358C53.3401 6.6264 52.8089 5.344 51.8634 4.39847C50.9179 3.45294 49.6355 2.92175 48.2983 2.92175Z" stroke="#B8D4F0" stroke-width="4.56" stroke-miterlimit="10"/>
</g>
<defs>
<clipPath id="clip0_137_1380">
<rect width="56" height="56" fill="white"/>
</clipPath>
</defs>
</svg>
