<svg width="56" height="56" viewBox="0 0 56 56" fill="none" xmlns="http://www.w3.org/2000/svg">
<path d="M29.4521 37.3494H26.3465V37.3699H29.4521V37.3494ZM31.7088 54.6994L16.0668 54.6994V51.6143H31.7089C34.0071 51.6132 36.0872 50.6801 37.5918 49.1725L47.3477 39.4165C47.8229 38.9431 48.1169 38.2879 48.1169 37.5642L48.1167 37.5294V37.5275V37.5274V37.4799C48.1169 37.4676 48.117 37.4529 48.117 37.4384C48.117 36.0034 46.9536 34.8401 45.5187 34.8401C44.7778 34.8401 44.1094 35.1501 43.6361 35.6475L43.636 35.6476L43.6353 35.6484L43.635 35.6487L32.4912 46.7925H29.9799V43.7074H29.9924H29.9924C31.3087 43.7017 32.3736 42.6333 32.3736 41.3162C32.3736 41.1841 32.3629 41.0545 32.3423 40.9282L32.3411 40.9284C32.0695 39.7608 31.0375 38.9037 29.8053 38.9037C29.7866 38.9037 29.768 38.9039 29.7493 38.9043H21.618L19.3696 37.7915C18.3151 37.2561 17.0704 36.9425 15.7525 36.9425C13.8235 36.9425 12.0514 37.6143 10.6575 38.7365L10.6578 38.7369C8.87266 40.2042 7.74302 42.4122 7.74302 44.8842C7.74302 44.9255 7.74334 44.9667 7.74393 45.0078V45.2376H4.65877L4.65877 45.0409L4.65877 45.0407C4.65818 44.9945 4.65772 44.94 4.65772 44.8854C4.65772 41.4461 6.23501 38.3751 8.70572 36.3563L8.72533 36.3408L8.72539 36.3407C10.6286 34.8061 13.0763 33.8774 15.741 33.8774C17.5308 33.8774 19.2226 34.2964 20.7239 35.0416L20.7228 35.0438L20.7231 35.044L22.3191 35.8327L22.3186 35.8337H22.3236L29.6881 35.8337L29.6883 35.8337C29.718 35.8332 29.753 35.8328 29.7881 35.8328C32.2832 35.8328 34.4031 37.4395 35.1695 39.6747C35.1695 39.6748 35.1696 39.6748 35.1696 39.6749L35.1814 39.7146L35.1863 39.7311L35.1985 39.7189L41.4118 33.516L41.4119 33.5158C42.4485 32.4337 43.905 31.7612 45.5188 31.7612C48.6576 31.7612 51.2022 34.3058 51.2022 37.4446C51.2022 37.4646 51.202 37.4847 51.2018 37.5047H51.2018V37.5048V37.5077V37.5079H51.2018C51.202 37.523 51.2021 37.5408 51.2021 37.5584C51.2021 39.1375 50.5615 40.5669 49.5259 41.6009L49.5331 41.6081L49.5258 41.6009L39.7761 51.3483C37.7121 53.4156 34.8603 54.6956 31.7095 54.6994H31.7088ZM29.856 46.7904H20.0212V43.7054H29.8559L29.856 46.7904Z" fill="#BAD5F0" stroke="#B8D4F0" stroke-width="0.0205201"/>
<path d="M14.7802 11.7921L15.4616 11.4514V24.6062L14.7802 24.2655L14.6734 24.2121L14.6201 24.3189L13.9621 25.6349H12.6101V10.4227H13.9621L14.6201 11.7387L14.6734 11.8454L14.7802 11.7921ZM12.6151 25.8736H13.8427L13.2937 26.9717C12.9054 26.7351 12.653 26.3266 12.6151 25.8736ZM13.5049 27.0829L14.1096 25.8736H15.5809H15.7002V25.7542V24.9924L29.2199 31.7522L28.7424 31.9909L28.6357 32.0443L28.689 32.1511L29.3533 33.4797L28.7424 34.7016L13.5049 27.0829ZM28.9581 34.8039L29.4867 33.7466L30.0153 34.8039C29.6761 34.9393 29.2974 34.9393 28.9581 34.8039ZM30.2311 34.7016L29.6202 33.4797L30.2844 32.1511L30.3378 32.0443L30.2311 31.9909L29.7536 31.7522L43.2732 24.9924V25.7542V25.8736H43.3926H44.8639L45.4685 27.0829L30.2311 34.7016ZM45.6798 26.9717L45.1307 25.8736H46.3584C46.3204 26.3266 46.068 26.7351 45.6798 26.9717ZM46.3634 25.6349H45.0114L44.3534 24.3189L44.3001 24.2121L44.1933 24.2655L43.5119 24.6062V11.4514L44.1933 11.7921L44.3001 11.8454L44.3534 11.7387L45.0114 10.4227H46.3634V25.6349ZM45.6798 9.08589C46.068 9.32248 46.3204 9.73091 46.3584 10.184H45.1307L45.6798 9.08589ZM45.4685 8.97469L44.8639 10.184H43.3926H43.2732V10.3033V11.0652L29.7536 4.30532L30.2311 4.06658L30.3378 4.01321L30.2844 3.90646L29.6202 2.57786L30.2311 1.35601L45.4685 8.97469ZM30.0153 1.25373L29.4867 2.311L28.9581 1.25373C29.2974 1.11825 29.6761 1.11825 30.0153 1.25373ZM28.7424 1.35601L29.3533 2.57787L28.689 3.90646L28.6357 4.01321L28.7424 4.06658L29.2199 4.30532L15.7002 11.0652V10.3033V10.184H15.5809H14.1096L13.5049 8.97469L28.7424 1.35601ZM13.2937 9.08589L13.8427 10.184H12.6151C12.653 9.73091 12.9054 9.32248 13.2937 9.08589ZM14.2289 10.4227H15.4616V11.1845L14.7802 11.5252L14.2289 10.4227ZM30.0176 3.90646L29.4867 4.17189L28.9559 3.90646L29.4867 2.84473L30.0176 3.90646ZM44.7445 10.4227L44.1933 11.5252L43.5119 11.1845V10.4227H44.7445ZM14.7802 24.5323L15.4616 24.873V25.6349H14.2289L14.7802 24.5323ZM29.4867 31.8856L30.0176 32.1511L29.4867 33.2128L28.9559 32.1511L29.4867 31.8856ZM43.5119 24.8731L44.1933 24.5324L44.7445 25.6349H43.5119V24.8731Z" fill="#BAD5F0" stroke="#B8D4F0" stroke-width="0.238687"/>
<path d="M14.0356 10.3033L29.4866 18.0288" stroke="#B8D4F0" stroke-width="2.23" stroke-linecap="round" stroke-linejoin="round"/>
<path d="M29.4868 18.0288V33.4797" stroke="#B8D4F0" stroke-width="0.238687"/>
<path d="M29.4868 33.4797V18.0288" stroke="#B8D4F0" stroke-width="2.23" stroke-linecap="round" stroke-linejoin="round"/>
<path d="M44.9377 10.3033L29.4868 18.0288" stroke="#B8D4F0" stroke-width="2.23" stroke-linecap="round" stroke-linejoin="round"/>
<path d="M37.0021 8.32293C37.6579 8.0116 37.9237 7.25447 37.5958 6.63184C37.2679 6.00921 36.4704 5.75684 35.8147 6.06816L37.0021 8.32293ZM22.5389 12.3703C21.883 12.6816 21.6173 13.4388 21.9451 14.0614C22.273 14.684 23.0705 14.9364 23.7263 14.6251L22.5389 12.3703ZM35.8147 6.06816L22.5389 12.3703L23.7263 14.6251L37.0021 8.32293L35.8147 6.06816Z" fill="#BAD5F0"/>
</svg>
