<?xml version="1.0" encoding="UTF-8"?>
<svg width="56" height="56" stroke-width="1.5" viewBox="0 0 24 24" fill="none"
  xmlns="http://www.w3.org/2000/svg" color="#bad5f0">
  <path
    d="M10 15v4a2 2 0 01-2 2H4a2 2 0 01-2-2v-4a2 2 0 012-2h4a2 2 0 012 2zM16 5v4a2 2 0 01-2 2h-4a2 2 0 01-2-2V5a2 2 0 012-2h4a2 2 0 012 2zM22 15v4a2 2 0 01-2 2h-4a2 2 0 01-2-2v-4a2 2 0 012-2h4a2 2 0 012 2zM6 16v-3M12 6V3M18 16v-3"
    stroke="#bad5f0" stroke-width="1.5" stroke-linecap="round" stroke-linejoin="round"></path>
</svg>